<?xml version="1.0" encoding="utf-8" standalone="no"?>
<!DOCTYPE svg PUBLIC "-//W3C//DTD SVG 1.1//EN"
  "http://www.w3.org/Graphics/SVG/1.1/DTD/svg11.dtd">
<!-- Created with matplotlib (https://matplotlib.org/) -->
<svg height="345.6pt" version="1.1" viewBox="0 0 460.8 345.6" width="460.8pt" xmlns="http://www.w3.org/2000/svg" xmlns:xlink="http://www.w3.org/1999/xlink">
 <metadata>
  <rdf:RDF xmlns:cc="http://creativecommons.org/ns#" xmlns:dc="http://purl.org/dc/elements/1.1/" xmlns:rdf="http://www.w3.org/1999/02/22-rdf-syntax-ns#">
   <cc:Work>
    <dc:type rdf:resource="http://purl.org/dc/dcmitype/StillImage"/>
    <dc:date>2021-03-09T18:27:12.060770</dc:date>
    <dc:format>image/svg+xml</dc:format>
    <dc:creator>
     <cc:Agent>
      <dc:title>Matplotlib v3.3.4, https://matplotlib.org/</dc:title>
     </cc:Agent>
    </dc:creator>
   </cc:Work>
  </rdf:RDF>
 </metadata>
 <defs>
  <style type="text/css">*{stroke-linecap:butt;stroke-linejoin:round;}</style>
 </defs>
 <g id="figure_1">
  <g id="patch_1">
   <path d="M 0 345.6 
L 460.8 345.6 
L 460.8 0 
L 0 0 
z
" style="fill:#ffffff;"/>
  </g>
  <g id="axes_1">
   <g id="patch_2">
    <path d="M 57.6 307.584 
L 414.72 307.584 
L 414.72 41.472 
L 57.6 41.472 
z
" style="fill:#ffffff;"/>
   </g>
   <g id="matplotlib.axis_1">
    <g id="xtick_1">
     <g id="line2d_1">
      <path clip-path="url(#pdc14828366)" d="M 73.832727 307.584 
L 73.832727 41.472 
" style="fill:none;stroke:#b0b0b0;stroke-linecap:square;stroke-width:0.8;"/>
     </g>
     <g id="line2d_2">
      <defs>
       <path d="M 0 0 
L 0 3.5 
" id="m0c7debc7e3" style="stroke:#000000;stroke-width:0.8;"/>
      </defs>
      <g>
       <use style="stroke:#000000;stroke-width:0.8;" x="73.832727" xlink:href="#m0c7debc7e3" y="307.584"/>
      </g>
     </g>
     <g id="text_1">
      <!-- 0 -->
      <g transform="translate(70.651477 322.182437)scale(0.1 -0.1)">
       <defs>
        <path d="M 31.78125 66.40625 
Q 24.171875 66.40625 20.328125 58.90625 
Q 16.5 51.421875 16.5 36.375 
Q 16.5 21.390625 20.328125 13.890625 
Q 24.171875 6.390625 31.78125 6.390625 
Q 39.453125 6.390625 43.28125 13.890625 
Q 47.125 21.390625 47.125 36.375 
Q 47.125 51.421875 43.28125 58.90625 
Q 39.453125 66.40625 31.78125 66.40625 
z
M 31.78125 74.21875 
Q 44.046875 74.21875 50.515625 64.515625 
Q 56.984375 54.828125 56.984375 36.375 
Q 56.984375 17.96875 50.515625 8.265625 
Q 44.046875 -1.421875 31.78125 -1.421875 
Q 19.53125 -1.421875 13.0625 8.265625 
Q 6.59375 17.96875 6.59375 36.375 
Q 6.59375 54.828125 13.0625 64.515625 
Q 19.53125 74.21875 31.78125 74.21875 
z
" id="DejaVuSans-48"/>
       </defs>
       <use xlink:href="#DejaVuSans-48"/>
      </g>
     </g>
    </g>
    <g id="xtick_2">
     <g id="line2d_3">
      <path clip-path="url(#pdc14828366)" d="M 133.076257 307.584 
L 133.076257 41.472 
" style="fill:none;stroke:#b0b0b0;stroke-linecap:square;stroke-width:0.8;"/>
     </g>
     <g id="line2d_4">
      <g>
       <use style="stroke:#000000;stroke-width:0.8;" x="133.076257" xlink:href="#m0c7debc7e3" y="307.584"/>
      </g>
     </g>
     <g id="text_2">
      <!-- 50 -->
      <g transform="translate(126.713757 322.182437)scale(0.1 -0.1)">
       <defs>
        <path d="M 10.796875 72.90625 
L 49.515625 72.90625 
L 49.515625 64.59375 
L 19.828125 64.59375 
L 19.828125 46.734375 
Q 21.96875 47.46875 24.109375 47.828125 
Q 26.265625 48.1875 28.421875 48.1875 
Q 40.625 48.1875 47.75 41.5 
Q 54.890625 34.8125 54.890625 23.390625 
Q 54.890625 11.625 47.5625 5.09375 
Q 40.234375 -1.421875 26.90625 -1.421875 
Q 22.3125 -1.421875 17.546875 -0.640625 
Q 12.796875 0.140625 7.71875 1.703125 
L 7.71875 11.625 
Q 12.109375 9.234375 16.796875 8.0625 
Q 21.484375 6.890625 26.703125 6.890625 
Q 35.15625 6.890625 40.078125 11.328125 
Q 45.015625 15.765625 45.015625 23.390625 
Q 45.015625 31 40.078125 35.4375 
Q 35.15625 39.890625 26.703125 39.890625 
Q 22.75 39.890625 18.8125 39.015625 
Q 14.890625 38.140625 10.796875 36.28125 
z
" id="DejaVuSans-53"/>
       </defs>
       <use xlink:href="#DejaVuSans-53"/>
       <use x="63.623047" xlink:href="#DejaVuSans-48"/>
      </g>
     </g>
    </g>
    <g id="xtick_3">
     <g id="line2d_5">
      <path clip-path="url(#pdc14828366)" d="M 192.319788 307.584 
L 192.319788 41.472 
" style="fill:none;stroke:#b0b0b0;stroke-linecap:square;stroke-width:0.8;"/>
     </g>
     <g id="line2d_6">
      <g>
       <use style="stroke:#000000;stroke-width:0.8;" x="192.319788" xlink:href="#m0c7debc7e3" y="307.584"/>
      </g>
     </g>
     <g id="text_3">
      <!-- 100 -->
      <g transform="translate(182.776038 322.182437)scale(0.1 -0.1)">
       <defs>
        <path d="M 12.40625 8.296875 
L 28.515625 8.296875 
L 28.515625 63.921875 
L 10.984375 60.40625 
L 10.984375 69.390625 
L 28.421875 72.90625 
L 38.28125 72.90625 
L 38.28125 8.296875 
L 54.390625 8.296875 
L 54.390625 0 
L 12.40625 0 
z
" id="DejaVuSans-49"/>
       </defs>
       <use xlink:href="#DejaVuSans-49"/>
       <use x="63.623047" xlink:href="#DejaVuSans-48"/>
       <use x="127.246094" xlink:href="#DejaVuSans-48"/>
      </g>
     </g>
    </g>
    <g id="xtick_4">
     <g id="line2d_7">
      <path clip-path="url(#pdc14828366)" d="M 251.563318 307.584 
L 251.563318 41.472 
" style="fill:none;stroke:#b0b0b0;stroke-linecap:square;stroke-width:0.8;"/>
     </g>
     <g id="line2d_8">
      <g>
       <use style="stroke:#000000;stroke-width:0.8;" x="251.563318" xlink:href="#m0c7debc7e3" y="307.584"/>
      </g>
     </g>
     <g id="text_4">
      <!-- 150 -->
      <g transform="translate(242.019568 322.182437)scale(0.1 -0.1)">
       <use xlink:href="#DejaVuSans-49"/>
       <use x="63.623047" xlink:href="#DejaVuSans-53"/>
       <use x="127.246094" xlink:href="#DejaVuSans-48"/>
      </g>
     </g>
    </g>
    <g id="xtick_5">
     <g id="line2d_9">
      <path clip-path="url(#pdc14828366)" d="M 310.806848 307.584 
L 310.806848 41.472 
" style="fill:none;stroke:#b0b0b0;stroke-linecap:square;stroke-width:0.8;"/>
     </g>
     <g id="line2d_10">
      <g>
       <use style="stroke:#000000;stroke-width:0.8;" x="310.806848" xlink:href="#m0c7debc7e3" y="307.584"/>
      </g>
     </g>
     <g id="text_5">
      <!-- 200 -->
      <g transform="translate(301.263098 322.182437)scale(0.1 -0.1)">
       <defs>
        <path d="M 19.1875 8.296875 
L 53.609375 8.296875 
L 53.609375 0 
L 7.328125 0 
L 7.328125 8.296875 
Q 12.9375 14.109375 22.625 23.890625 
Q 32.328125 33.6875 34.8125 36.53125 
Q 39.546875 41.84375 41.421875 45.53125 
Q 43.3125 49.21875 43.3125 52.78125 
Q 43.3125 58.59375 39.234375 62.25 
Q 35.15625 65.921875 28.609375 65.921875 
Q 23.96875 65.921875 18.8125 64.3125 
Q 13.671875 62.703125 7.8125 59.421875 
L 7.8125 69.390625 
Q 13.765625 71.78125 18.9375 73 
Q 24.125 74.21875 28.421875 74.21875 
Q 39.75 74.21875 46.484375 68.546875 
Q 53.21875 62.890625 53.21875 53.421875 
Q 53.21875 48.921875 51.53125 44.890625 
Q 49.859375 40.875 45.40625 35.40625 
Q 44.1875 33.984375 37.640625 27.21875 
Q 31.109375 20.453125 19.1875 8.296875 
z
" id="DejaVuSans-50"/>
       </defs>
       <use xlink:href="#DejaVuSans-50"/>
       <use x="63.623047" xlink:href="#DejaVuSans-48"/>
       <use x="127.246094" xlink:href="#DejaVuSans-48"/>
      </g>
     </g>
    </g>
    <g id="xtick_6">
     <g id="line2d_11">
      <path clip-path="url(#pdc14828366)" d="M 370.050378 307.584 
L 370.050378 41.472 
" style="fill:none;stroke:#b0b0b0;stroke-linecap:square;stroke-width:0.8;"/>
     </g>
     <g id="line2d_12">
      <g>
       <use style="stroke:#000000;stroke-width:0.8;" x="370.050378" xlink:href="#m0c7debc7e3" y="307.584"/>
      </g>
     </g>
     <g id="text_6">
      <!-- 250 -->
      <g transform="translate(360.506628 322.182437)scale(0.1 -0.1)">
       <use xlink:href="#DejaVuSans-50"/>
       <use x="63.623047" xlink:href="#DejaVuSans-53"/>
       <use x="127.246094" xlink:href="#DejaVuSans-48"/>
      </g>
     </g>
    </g>
    <g id="text_7">
     <!-- Generations -->
     <g transform="translate(205.662344 335.860562)scale(0.1 -0.1)">
      <defs>
       <path d="M 59.515625 10.40625 
L 59.515625 29.984375 
L 43.40625 29.984375 
L 43.40625 38.09375 
L 69.28125 38.09375 
L 69.28125 6.78125 
Q 63.578125 2.734375 56.6875 0.65625 
Q 49.8125 -1.421875 42 -1.421875 
Q 24.90625 -1.421875 15.25 8.5625 
Q 5.609375 18.5625 5.609375 36.375 
Q 5.609375 54.25 15.25 64.234375 
Q 24.90625 74.21875 42 74.21875 
Q 49.125 74.21875 55.546875 72.453125 
Q 61.96875 70.703125 67.390625 67.28125 
L 67.390625 56.78125 
Q 61.921875 61.421875 55.765625 63.765625 
Q 49.609375 66.109375 42.828125 66.109375 
Q 29.4375 66.109375 22.71875 58.640625 
Q 16.015625 51.171875 16.015625 36.375 
Q 16.015625 21.625 22.71875 14.15625 
Q 29.4375 6.6875 42.828125 6.6875 
Q 48.046875 6.6875 52.140625 7.59375 
Q 56.25 8.5 59.515625 10.40625 
z
" id="DejaVuSans-71"/>
       <path d="M 56.203125 29.59375 
L 56.203125 25.203125 
L 14.890625 25.203125 
Q 15.484375 15.921875 20.484375 11.0625 
Q 25.484375 6.203125 34.421875 6.203125 
Q 39.59375 6.203125 44.453125 7.46875 
Q 49.3125 8.734375 54.109375 11.28125 
L 54.109375 2.78125 
Q 49.265625 0.734375 44.1875 -0.34375 
Q 39.109375 -1.421875 33.890625 -1.421875 
Q 20.796875 -1.421875 13.15625 6.1875 
Q 5.515625 13.8125 5.515625 26.8125 
Q 5.515625 40.234375 12.765625 48.109375 
Q 20.015625 56 32.328125 56 
Q 43.359375 56 49.78125 48.890625 
Q 56.203125 41.796875 56.203125 29.59375 
z
M 47.21875 32.234375 
Q 47.125 39.59375 43.09375 43.984375 
Q 39.0625 48.390625 32.421875 48.390625 
Q 24.90625 48.390625 20.390625 44.140625 
Q 15.875 39.890625 15.1875 32.171875 
z
" id="DejaVuSans-101"/>
       <path d="M 54.890625 33.015625 
L 54.890625 0 
L 45.90625 0 
L 45.90625 32.71875 
Q 45.90625 40.484375 42.875 44.328125 
Q 39.84375 48.1875 33.796875 48.1875 
Q 26.515625 48.1875 22.3125 43.546875 
Q 18.109375 38.921875 18.109375 30.90625 
L 18.109375 0 
L 9.078125 0 
L 9.078125 54.6875 
L 18.109375 54.6875 
L 18.109375 46.1875 
Q 21.34375 51.125 25.703125 53.5625 
Q 30.078125 56 35.796875 56 
Q 45.21875 56 50.046875 50.171875 
Q 54.890625 44.34375 54.890625 33.015625 
z
" id="DejaVuSans-110"/>
       <path d="M 41.109375 46.296875 
Q 39.59375 47.171875 37.8125 47.578125 
Q 36.03125 48 33.890625 48 
Q 26.265625 48 22.1875 43.046875 
Q 18.109375 38.09375 18.109375 28.8125 
L 18.109375 0 
L 9.078125 0 
L 9.078125 54.6875 
L 18.109375 54.6875 
L 18.109375 46.1875 
Q 20.953125 51.171875 25.484375 53.578125 
Q 30.03125 56 36.53125 56 
Q 37.453125 56 38.578125 55.875 
Q 39.703125 55.765625 41.0625 55.515625 
z
" id="DejaVuSans-114"/>
       <path d="M 34.28125 27.484375 
Q 23.390625 27.484375 19.1875 25 
Q 14.984375 22.515625 14.984375 16.5 
Q 14.984375 11.71875 18.140625 8.90625 
Q 21.296875 6.109375 26.703125 6.109375 
Q 34.1875 6.109375 38.703125 11.40625 
Q 43.21875 16.703125 43.21875 25.484375 
L 43.21875 27.484375 
z
M 52.203125 31.203125 
L 52.203125 0 
L 43.21875 0 
L 43.21875 8.296875 
Q 40.140625 3.328125 35.546875 0.953125 
Q 30.953125 -1.421875 24.3125 -1.421875 
Q 15.921875 -1.421875 10.953125 3.296875 
Q 6 8.015625 6 15.921875 
Q 6 25.140625 12.171875 29.828125 
Q 18.359375 34.515625 30.609375 34.515625 
L 43.21875 34.515625 
L 43.21875 35.40625 
Q 43.21875 41.609375 39.140625 45 
Q 35.0625 48.390625 27.6875 48.390625 
Q 23 48.390625 18.546875 47.265625 
Q 14.109375 46.140625 10.015625 43.890625 
L 10.015625 52.203125 
Q 14.9375 54.109375 19.578125 55.046875 
Q 24.21875 56 28.609375 56 
Q 40.484375 56 46.34375 49.84375 
Q 52.203125 43.703125 52.203125 31.203125 
z
" id="DejaVuSans-97"/>
       <path d="M 18.3125 70.21875 
L 18.3125 54.6875 
L 36.8125 54.6875 
L 36.8125 47.703125 
L 18.3125 47.703125 
L 18.3125 18.015625 
Q 18.3125 11.328125 20.140625 9.421875 
Q 21.96875 7.515625 27.59375 7.515625 
L 36.8125 7.515625 
L 36.8125 0 
L 27.59375 0 
Q 17.1875 0 13.234375 3.875 
Q 9.28125 7.765625 9.28125 18.015625 
L 9.28125 47.703125 
L 2.6875 47.703125 
L 2.6875 54.6875 
L 9.28125 54.6875 
L 9.28125 70.21875 
z
" id="DejaVuSans-116"/>
       <path d="M 9.421875 54.6875 
L 18.40625 54.6875 
L 18.40625 0 
L 9.421875 0 
z
M 9.421875 75.984375 
L 18.40625 75.984375 
L 18.40625 64.59375 
L 9.421875 64.59375 
z
" id="DejaVuSans-105"/>
       <path d="M 30.609375 48.390625 
Q 23.390625 48.390625 19.1875 42.75 
Q 14.984375 37.109375 14.984375 27.296875 
Q 14.984375 17.484375 19.15625 11.84375 
Q 23.34375 6.203125 30.609375 6.203125 
Q 37.796875 6.203125 41.984375 11.859375 
Q 46.1875 17.53125 46.1875 27.296875 
Q 46.1875 37.015625 41.984375 42.703125 
Q 37.796875 48.390625 30.609375 48.390625 
z
M 30.609375 56 
Q 42.328125 56 49.015625 48.375 
Q 55.71875 40.765625 55.71875 27.296875 
Q 55.71875 13.875 49.015625 6.21875 
Q 42.328125 -1.421875 30.609375 -1.421875 
Q 18.84375 -1.421875 12.171875 6.21875 
Q 5.515625 13.875 5.515625 27.296875 
Q 5.515625 40.765625 12.171875 48.375 
Q 18.84375 56 30.609375 56 
z
" id="DejaVuSans-111"/>
       <path d="M 44.28125 53.078125 
L 44.28125 44.578125 
Q 40.484375 46.53125 36.375 47.5 
Q 32.28125 48.484375 27.875 48.484375 
Q 21.1875 48.484375 17.84375 46.4375 
Q 14.5 44.390625 14.5 40.28125 
Q 14.5 37.15625 16.890625 35.375 
Q 19.28125 33.59375 26.515625 31.984375 
L 29.59375 31.296875 
Q 39.15625 29.25 43.1875 25.515625 
Q 47.21875 21.78125 47.21875 15.09375 
Q 47.21875 7.46875 41.1875 3.015625 
Q 35.15625 -1.421875 24.609375 -1.421875 
Q 20.21875 -1.421875 15.453125 -0.5625 
Q 10.6875 0.296875 5.421875 2 
L 5.421875 11.28125 
Q 10.40625 8.6875 15.234375 7.390625 
Q 20.0625 6.109375 24.8125 6.109375 
Q 31.15625 6.109375 34.5625 8.28125 
Q 37.984375 10.453125 37.984375 14.40625 
Q 37.984375 18.0625 35.515625 20.015625 
Q 33.0625 21.96875 24.703125 23.78125 
L 21.578125 24.515625 
Q 13.234375 26.265625 9.515625 29.90625 
Q 5.8125 33.546875 5.8125 39.890625 
Q 5.8125 47.609375 11.28125 51.796875 
Q 16.75 56 26.8125 56 
Q 31.78125 56 36.171875 55.265625 
Q 40.578125 54.546875 44.28125 53.078125 
z
" id="DejaVuSans-115"/>
      </defs>
      <use xlink:href="#DejaVuSans-71"/>
      <use x="77.490234" xlink:href="#DejaVuSans-101"/>
      <use x="139.013672" xlink:href="#DejaVuSans-110"/>
      <use x="202.392578" xlink:href="#DejaVuSans-101"/>
      <use x="263.916016" xlink:href="#DejaVuSans-114"/>
      <use x="305.029297" xlink:href="#DejaVuSans-97"/>
      <use x="366.308594" xlink:href="#DejaVuSans-116"/>
      <use x="405.517578" xlink:href="#DejaVuSans-105"/>
      <use x="433.300781" xlink:href="#DejaVuSans-111"/>
      <use x="494.482422" xlink:href="#DejaVuSans-110"/>
      <use x="557.861328" xlink:href="#DejaVuSans-115"/>
     </g>
    </g>
   </g>
   <g id="matplotlib.axis_2">
    <g id="ytick_1">
     <g id="line2d_13">
      <path clip-path="url(#pdc14828366)" d="M 57.6 268.048656 
L 414.72 268.048656 
" style="fill:none;stroke:#b0b0b0;stroke-linecap:square;stroke-width:0.8;"/>
     </g>
     <g id="line2d_14">
      <defs>
       <path d="M 0 0 
L -3.5 0 
" id="mfb2b54924f" style="stroke:#000000;stroke-width:0.8;"/>
      </defs>
      <g>
       <use style="stroke:#000000;stroke-width:0.8;" x="57.6" xlink:href="#mfb2b54924f" y="268.048656"/>
      </g>
     </g>
     <g id="text_8">
      <!-- 0 -->
      <g transform="translate(44.2375 271.847875)scale(0.1 -0.1)">
       <use xlink:href="#DejaVuSans-48"/>
      </g>
     </g>
    </g>
    <g id="ytick_2">
     <g id="line2d_15">
      <path clip-path="url(#pdc14828366)" d="M 57.6 227.388816 
L 414.72 227.388816 
" style="fill:none;stroke:#b0b0b0;stroke-linecap:square;stroke-width:0.8;"/>
     </g>
     <g id="line2d_16">
      <g>
       <use style="stroke:#000000;stroke-width:0.8;" x="57.6" xlink:href="#mfb2b54924f" y="227.388816"/>
      </g>
     </g>
     <g id="text_9">
      <!-- 2000 -->
      <g transform="translate(25.15 231.188035)scale(0.1 -0.1)">
       <use xlink:href="#DejaVuSans-50"/>
       <use x="63.623047" xlink:href="#DejaVuSans-48"/>
       <use x="127.246094" xlink:href="#DejaVuSans-48"/>
       <use x="190.869141" xlink:href="#DejaVuSans-48"/>
      </g>
     </g>
    </g>
    <g id="ytick_3">
     <g id="line2d_17">
      <path clip-path="url(#pdc14828366)" d="M 57.6 186.728976 
L 414.72 186.728976 
" style="fill:none;stroke:#b0b0b0;stroke-linecap:square;stroke-width:0.8;"/>
     </g>
     <g id="line2d_18">
      <g>
       <use style="stroke:#000000;stroke-width:0.8;" x="57.6" xlink:href="#mfb2b54924f" y="186.728976"/>
      </g>
     </g>
     <g id="text_10">
      <!-- 4000 -->
      <g transform="translate(25.15 190.528195)scale(0.1 -0.1)">
       <defs>
        <path d="M 37.796875 64.3125 
L 12.890625 25.390625 
L 37.796875 25.390625 
z
M 35.203125 72.90625 
L 47.609375 72.90625 
L 47.609375 25.390625 
L 58.015625 25.390625 
L 58.015625 17.1875 
L 47.609375 17.1875 
L 47.609375 0 
L 37.796875 0 
L 37.796875 17.1875 
L 4.890625 17.1875 
L 4.890625 26.703125 
z
" id="DejaVuSans-52"/>
       </defs>
       <use xlink:href="#DejaVuSans-52"/>
       <use x="63.623047" xlink:href="#DejaVuSans-48"/>
       <use x="127.246094" xlink:href="#DejaVuSans-48"/>
       <use x="190.869141" xlink:href="#DejaVuSans-48"/>
      </g>
     </g>
    </g>
    <g id="ytick_4">
     <g id="line2d_19">
      <path clip-path="url(#pdc14828366)" d="M 57.6 146.069136 
L 414.72 146.069136 
" style="fill:none;stroke:#b0b0b0;stroke-linecap:square;stroke-width:0.8;"/>
     </g>
     <g id="line2d_20">
      <g>
       <use style="stroke:#000000;stroke-width:0.8;" x="57.6" xlink:href="#mfb2b54924f" y="146.069136"/>
      </g>
     </g>
     <g id="text_11">
      <!-- 6000 -->
      <g transform="translate(25.15 149.868355)scale(0.1 -0.1)">
       <defs>
        <path d="M 33.015625 40.375 
Q 26.375 40.375 22.484375 35.828125 
Q 18.609375 31.296875 18.609375 23.390625 
Q 18.609375 15.53125 22.484375 10.953125 
Q 26.375 6.390625 33.015625 6.390625 
Q 39.65625 6.390625 43.53125 10.953125 
Q 47.40625 15.53125 47.40625 23.390625 
Q 47.40625 31.296875 43.53125 35.828125 
Q 39.65625 40.375 33.015625 40.375 
z
M 52.59375 71.296875 
L 52.59375 62.3125 
Q 48.875 64.0625 45.09375 64.984375 
Q 41.3125 65.921875 37.59375 65.921875 
Q 27.828125 65.921875 22.671875 59.328125 
Q 17.53125 52.734375 16.796875 39.40625 
Q 19.671875 43.65625 24.015625 45.921875 
Q 28.375 48.1875 33.59375 48.1875 
Q 44.578125 48.1875 50.953125 41.515625 
Q 57.328125 34.859375 57.328125 23.390625 
Q 57.328125 12.15625 50.6875 5.359375 
Q 44.046875 -1.421875 33.015625 -1.421875 
Q 20.359375 -1.421875 13.671875 8.265625 
Q 6.984375 17.96875 6.984375 36.375 
Q 6.984375 53.65625 15.1875 63.9375 
Q 23.390625 74.21875 37.203125 74.21875 
Q 40.921875 74.21875 44.703125 73.484375 
Q 48.484375 72.75 52.59375 71.296875 
z
" id="DejaVuSans-54"/>
       </defs>
       <use xlink:href="#DejaVuSans-54"/>
       <use x="63.623047" xlink:href="#DejaVuSans-48"/>
       <use x="127.246094" xlink:href="#DejaVuSans-48"/>
       <use x="190.869141" xlink:href="#DejaVuSans-48"/>
      </g>
     </g>
    </g>
    <g id="ytick_5">
     <g id="line2d_21">
      <path clip-path="url(#pdc14828366)" d="M 57.6 105.409296 
L 414.72 105.409296 
" style="fill:none;stroke:#b0b0b0;stroke-linecap:square;stroke-width:0.8;"/>
     </g>
     <g id="line2d_22">
      <g>
       <use style="stroke:#000000;stroke-width:0.8;" x="57.6" xlink:href="#mfb2b54924f" y="105.409296"/>
      </g>
     </g>
     <g id="text_12">
      <!-- 8000 -->
      <g transform="translate(25.15 109.208515)scale(0.1 -0.1)">
       <defs>
        <path d="M 31.78125 34.625 
Q 24.75 34.625 20.71875 30.859375 
Q 16.703125 27.09375 16.703125 20.515625 
Q 16.703125 13.921875 20.71875 10.15625 
Q 24.75 6.390625 31.78125 6.390625 
Q 38.8125 6.390625 42.859375 10.171875 
Q 46.921875 13.96875 46.921875 20.515625 
Q 46.921875 27.09375 42.890625 30.859375 
Q 38.875 34.625 31.78125 34.625 
z
M 21.921875 38.8125 
Q 15.578125 40.375 12.03125 44.71875 
Q 8.5 49.078125 8.5 55.328125 
Q 8.5 64.0625 14.71875 69.140625 
Q 20.953125 74.21875 31.78125 74.21875 
Q 42.671875 74.21875 48.875 69.140625 
Q 55.078125 64.0625 55.078125 55.328125 
Q 55.078125 49.078125 51.53125 44.71875 
Q 48 40.375 41.703125 38.8125 
Q 48.828125 37.15625 52.796875 32.3125 
Q 56.78125 27.484375 56.78125 20.515625 
Q 56.78125 9.90625 50.3125 4.234375 
Q 43.84375 -1.421875 31.78125 -1.421875 
Q 19.734375 -1.421875 13.25 4.234375 
Q 6.78125 9.90625 6.78125 20.515625 
Q 6.78125 27.484375 10.78125 32.3125 
Q 14.796875 37.15625 21.921875 38.8125 
z
M 18.3125 54.390625 
Q 18.3125 48.734375 21.84375 45.5625 
Q 25.390625 42.390625 31.78125 42.390625 
Q 38.140625 42.390625 41.71875 45.5625 
Q 45.3125 48.734375 45.3125 54.390625 
Q 45.3125 60.0625 41.71875 63.234375 
Q 38.140625 66.40625 31.78125 66.40625 
Q 25.390625 66.40625 21.84375 63.234375 
Q 18.3125 60.0625 18.3125 54.390625 
z
" id="DejaVuSans-56"/>
       </defs>
       <use xlink:href="#DejaVuSans-56"/>
       <use x="63.623047" xlink:href="#DejaVuSans-48"/>
       <use x="127.246094" xlink:href="#DejaVuSans-48"/>
       <use x="190.869141" xlink:href="#DejaVuSans-48"/>
      </g>
     </g>
    </g>
    <g id="ytick_6">
     <g id="line2d_23">
      <path clip-path="url(#pdc14828366)" d="M 57.6 64.749456 
L 414.72 64.749456 
" style="fill:none;stroke:#b0b0b0;stroke-linecap:square;stroke-width:0.8;"/>
     </g>
     <g id="line2d_24">
      <g>
       <use style="stroke:#000000;stroke-width:0.8;" x="57.6" xlink:href="#mfb2b54924f" y="64.749456"/>
      </g>
     </g>
     <g id="text_13">
      <!-- 10000 -->
      <g transform="translate(18.7875 68.548675)scale(0.1 -0.1)">
       <use xlink:href="#DejaVuSans-49"/>
       <use x="63.623047" xlink:href="#DejaVuSans-48"/>
       <use x="127.246094" xlink:href="#DejaVuSans-48"/>
       <use x="190.869141" xlink:href="#DejaVuSans-48"/>
       <use x="254.492188" xlink:href="#DejaVuSans-48"/>
      </g>
     </g>
    </g>
    <g id="text_14">
     <!-- Fitness -->
     <g transform="translate(12.707812 191.845187)rotate(-90)scale(0.1 -0.1)">
      <defs>
       <path d="M 9.8125 72.90625 
L 51.703125 72.90625 
L 51.703125 64.59375 
L 19.671875 64.59375 
L 19.671875 43.109375 
L 48.578125 43.109375 
L 48.578125 34.8125 
L 19.671875 34.8125 
L 19.671875 0 
L 9.8125 0 
z
" id="DejaVuSans-70"/>
      </defs>
      <use xlink:href="#DejaVuSans-70"/>
      <use x="50.269531" xlink:href="#DejaVuSans-105"/>
      <use x="78.052734" xlink:href="#DejaVuSans-116"/>
      <use x="117.261719" xlink:href="#DejaVuSans-110"/>
      <use x="180.640625" xlink:href="#DejaVuSans-101"/>
      <use x="242.164062" xlink:href="#DejaVuSans-115"/>
      <use x="294.263672" xlink:href="#DejaVuSans-115"/>
     </g>
    </g>
   </g>
   <g id="line2d_25">
    <path clip-path="url(#pdc14828366)" d="M 73.832727 267.858911 
L 75.017598 267.797921 
L 76.202468 267.452312 
L 77.387339 267.431982 
L 78.57221 267.079597 
L 79.75708 267.25579 
L 80.941951 266.937288 
L 84.496563 266.540308 
L 85.681433 266.678026 
L 86.866304 266.476476 
L 88.051175 266.723933 
L 89.236045 266.671468 
L 90.420916 266.476476 
L 91.605786 266.557796 
L 92.790657 266.340943 
L 95.160398 266.291102 
L 96.345269 266.110537 
L 102.269622 266.153383 
L 103.454492 266.381603 
L 104.639363 266.069878 
L 105.824234 266.157974 
L 107.009104 266.069878 
L 108.193975 266.530689 
L 109.378845 266.530689 
L 110.563716 266.157974 
L 111.748587 266.483253 
L 114.118328 266.076654 
L 115.303198 266.063101 
L 116.488069 266.232517 
L 118.85781 266.049548 
L 120.042681 266.232517 
L 121.227551 266.183912 
L 122.412422 265.893685 
L 123.597293 265.987623 
L 124.782163 265.839472 
L 125.967034 265.927568 
L 127.151904 265.545973 
L 131.891387 266.114035 
L 133.076257 265.622619 
L 134.261128 265.386093 
L 135.445999 265.941121 
L 136.630869 265.792035 
L 137.81574 266.137644 
L 139.00061 265.683609 
L 140.185481 265.771705 
L 142.555222 265.453203 
L 144.924964 265.792035 
L 147.294705 265.473533 
L 148.479575 265.758152 
L 149.664446 265.642949 
L 150.849317 265.283787 
L 152.034187 265.595513 
L 153.219058 265.710716 
L 154.403928 265.663279 
L 155.588799 265.751376 
L 156.77367 265.50064 
L 157.95854 265.58196 
L 159.143411 265.249904 
L 160.328281 265.385437 
L 161.513152 265.914015 
L 162.698023 266.029218 
L 166.252634 265.37866 
L 167.437505 265.670056 
L 168.622376 265.656503 
L 169.807246 265.880132 
L 170.992117 265.52097 
L 173.361858 265.548076 
L 174.546729 264.917849 
L 175.731599 265.622619 
L 178.10134 265.168584 
L 179.286211 265.426097 
L 180.471082 264.518027 
L 181.655952 265.012722 
L 182.840823 265.168584 
L 184.025693 265.121148 
L 185.210564 264.957107 
L 186.395435 264.966378 
L 187.580305 265.297341 
L 188.765176 264.461409 
L 189.950046 265.263457 
L 191.134917 264.59958 
L 192.319788 265.182794 
L 193.504658 264.920472 
L 194.689529 264.538357 
L 195.874399 264.55978 
L 197.05927 264.829752 
L 198.244141 264.844942 
L 199.429011 264.271226 
L 200.613882 264.321504 
L 201.798752 264.71455 
L 202.983623 264.67389 
L 204.168494 264.992392 
L 205.353364 264.924625 
L 206.538235 265.033052 
L 207.723106 264.802646 
L 208.907976 265.236351 
L 210.092847 264.529477 
L 211.277717 264.408945 
L 212.462588 263.898549 
L 213.647459 264.389271 
L 214.832329 263.562521 
L 216.0172 264.480405 
L 217.20207 264.375718 
L 218.386941 264.445353 
L 219.571812 263.989449 
L 221.941553 264.415503 
L 223.126423 264.15092 
L 224.311294 264.484144 
L 225.496165 264.008905 
L 227.865906 264.206302 
L 229.050776 264.382261 
L 230.235647 264.71455 
L 231.420518 264.748433 
L 232.605388 265.588736 
L 233.790259 264.450261 
L 234.975129 265.216021 
L 236.16 264.931402 
L 238.529741 265.053382 
L 239.714612 265.175361 
L 240.899482 265.039828 
L 243.269224 265.134701 
L 244.454094 264.538357 
L 245.638965 265.060158 
L 246.823835 265.310894 
L 248.008706 265.209244 
L 249.193577 264.789093 
L 250.378447 265.168584 
L 253.933059 264.741656 
L 255.11793 264.897519 
L 256.3028 265.270234 
L 257.487671 264.748433 
L 259.857412 265.053382 
L 261.042283 265.053382 
L 262.227153 265.35833 
L 263.412024 264.917849 
L 265.781765 265.256681 
L 266.966636 265.107595 
L 268.151506 264.822976 
L 269.336377 264.321504 
L 270.521248 264.822976 
L 271.706118 264.944955 
L 275.26073 264.6129 
L 277.630471 265.127925 
L 281.185083 264.958509 
L 282.369954 264.829752 
L 283.554824 265.134701 
L 284.739695 265.039828 
L 285.924565 265.148255 
L 287.109436 264.138535 
L 288.294307 264.924625 
L 289.479177 264.904296 
L 290.664048 265.141478 
L 291.848918 264.558687 
L 293.033789 264.775539 
L 295.40353 264.429931 
L 296.588401 264.863636 
L 297.773271 264.579017 
L 298.958142 264.904296 
L 300.143013 264.856859 
L 301.327883 264.619677 
L 304.882495 265.270234 
L 306.067366 264.707773 
L 307.252236 264.877189 
L 308.437107 264.457037 
L 309.621977 265.033052 
L 310.806848 264.795869 
L 311.991719 264.992392 
L 313.176589 264.67389 
L 314.36146 264.843306 
L 315.54633 264.53158 
L 316.731201 265.277011 
L 317.916072 265.222798 
L 319.100942 264.904296 
L 321.470683 264.484144 
L 322.655554 265.304117 
L 323.840425 265.107595 
L 325.025295 264.463814 
L 326.210166 264.883966 
L 327.395036 264.707773 
L 328.579907 264.741656 
L 329.764778 265.283787 
L 330.949648 264.65356 
L 332.134519 264.707773 
L 333.31939 265.175361 
L 335.689131 265.168584 
L 336.874001 264.985615 
L 338.058872 265.48031 
L 339.243743 264.944955 
L 340.428613 264.558687 
L 341.613484 265.019498 
L 342.798354 265.073712 
L 345.168096 264.287621 
L 346.352966 264.260515 
L 347.537837 264.95982 
L 348.722707 264.907356 
L 349.907578 264.578549 
L 351.092449 265.277011 
L 354.64706 264.931402 
L 355.831931 264.246961 
L 357.016802 264.71455 
L 359.386543 264.917849 
L 360.571413 264.721326 
L 361.756284 264.931402 
L 362.941155 264.199525 
L 364.126025 265.039828 
L 365.310896 264.55191 
L 366.495766 264.213078 
L 367.680637 264.67389 
L 368.865508 264.579017 
L 370.050378 264.219855 
L 371.235249 264.755209 
L 372.420119 264.436707 
L 373.60499 265.277011 
L 374.789861 264.646783 
L 375.974731 264.829752 
L 377.159602 264.389271 
L 378.344472 264.429931 
L 379.529343 264.822976 
L 380.714214 264.599347 
L 383.083955 264.687443 
L 384.268825 264.016556 
L 386.638567 264.138535 
L 387.823437 264.084322 
L 390.193179 264.429931 
L 392.56292 264.267291 
L 393.74779 264.626453 
L 394.932661 264.640007 
L 396.117532 264.423154 
L 397.302402 264.321504 
L 398.487273 257.422885 
L 398.487273 257.422885 
" style="fill:none;stroke:#0000ff;stroke-linecap:square;stroke-width:1.5;"/>
   </g>
   <g id="line2d_26">
    <path clip-path="url(#pdc14828366)" d="M 73.832727 268.115709 
L 77.387339 268.088617 
L 78.57221 267.848708 
L 79.75708 268.162468 
L 80.941951 267.810502 
L 83.311692 267.790182 
L 84.496563 267.570191 
L 85.681433 267.78309 
L 86.866304 267.577466 
L 88.051175 267.894501 
L 89.236045 267.927568 
L 90.420916 267.79289 
L 91.605786 268.005207 
L 92.790657 267.746112 
L 95.160398 267.746662 
L 97.530139 267.437786 
L 98.71501 267.59948 
L 101.084751 267.65204 
L 102.269622 267.467252 
L 103.454492 267.662442 
L 107.009104 267.448653 
L 108.193975 268.091142 
L 109.378845 267.985127 
L 110.563716 267.623186 
L 111.748587 268.117379 
L 112.933457 267.684315 
L 115.303198 267.666188 
L 116.488069 267.904796 
L 118.85781 267.856574 
L 120.042681 267.998557 
L 121.227551 268.025692 
L 122.412422 267.603978 
L 123.597293 267.846085 
L 124.782163 267.560311 
L 125.967034 267.666684 
L 127.151904 267.376915 
L 128.336775 267.443184 
L 129.521646 267.653491 
L 130.706516 267.741139 
L 131.891387 268.064608 
L 133.076257 267.58101 
L 134.261128 267.622297 
L 135.445999 268.204042 
L 136.630869 268.219369 
L 137.81574 268.503031 
L 139.00061 268.261842 
L 140.185481 268.42313 
L 142.555222 268.034747 
L 144.924964 268.482122 
L 147.294705 268.014005 
L 148.479575 268.365319 
L 149.664446 268.24808 
L 150.849317 267.901325 
L 152.034187 268.240973 
L 155.588799 268.488073 
L 156.77367 268.145996 
L 157.95854 268.209549 
L 159.143411 267.904592 
L 160.328281 267.982765 
L 161.513152 268.65353 
L 162.698023 268.728805 
L 163.882893 268.622881 
L 166.252634 268.094428 
L 167.437505 268.429314 
L 168.622376 268.41153 
L 169.807246 268.678646 
L 170.992117 268.151677 
L 172.176987 268.341547 
L 173.361858 268.34108 
L 174.546729 267.731224 
L 175.731599 268.538119 
L 176.91647 268.176954 
L 178.10134 268.249125 
L 179.286211 268.566987 
L 180.471082 267.531834 
L 181.655952 268.054037 
L 182.840823 268.289115 
L 186.395435 267.922898 
L 187.580305 268.403113 
L 188.765176 267.422188 
L 189.950046 268.61107 
L 191.134917 267.853893 
L 192.319788 268.65921 
L 193.504658 268.265676 
L 194.689529 267.676871 
L 195.874399 267.713126 
L 197.05927 268.139675 
L 198.244141 268.209149 
L 199.429011 267.436253 
L 201.798752 267.763405 
L 202.983623 267.736721 
L 204.168494 268.148655 
L 206.538235 268.258654 
L 207.723106 267.93349 
L 208.907976 268.71868 
L 210.092847 267.51931 
L 211.277717 267.626437 
L 212.462588 267.312739 
L 213.647459 267.7612 
L 214.832329 266.760176 
L 216.0172 268.026087 
L 217.20207 267.824195 
L 218.386941 268.023171 
L 219.571812 267.44533 
L 220.756682 267.49635 
L 221.941553 268.040017 
L 223.126423 267.845218 
L 224.311294 268.1861 
L 225.496165 267.660902 
L 226.681035 267.699122 
L 227.865906 267.865066 
L 229.050776 268.145136 
L 230.235647 267.997522 
L 231.420518 267.972155 
L 232.605388 269.041373 
L 233.790259 267.625093 
L 234.975129 268.581604 
L 236.16 268.3041 
L 237.344871 268.3336 
L 238.529741 268.542371 
L 239.714612 268.569396 
L 240.899482 268.385073 
L 243.269224 268.536278 
L 244.454094 267.794079 
L 245.638965 268.381742 
L 246.823835 268.752893 
L 248.008706 268.60764 
L 249.193577 268.211323 
L 250.378447 268.567628 
L 251.563318 268.24496 
L 252.748188 268.114348 
L 253.933059 267.829723 
L 255.11793 268.19688 
L 256.3028 268.700847 
L 257.487671 268.179588 
L 259.857412 268.494661 
L 261.042283 268.426324 
L 262.227153 268.826626 
L 263.412024 268.298 
L 264.596894 268.575229 
L 265.781765 268.689944 
L 266.966636 268.579087 
L 268.151506 268.25134 
L 269.336377 267.684384 
L 270.521248 268.395004 
L 271.706118 268.513588 
L 272.890989 268.220211 
L 274.075859 268.218774 
L 275.26073 267.936225 
L 276.445601 268.323523 
L 277.630471 268.574624 
L 280.000212 268.435892 
L 281.185083 268.574492 
L 282.369954 268.199079 
L 283.554824 268.533036 
L 284.739695 268.515551 
L 285.924565 268.62181 
L 287.109436 267.479364 
L 288.294307 268.372124 
L 289.479177 268.308868 
L 290.664048 268.534058 
L 291.848918 267.971484 
L 293.033789 268.446709 
L 294.21866 268.041305 
L 296.588401 268.108083 
L 297.773271 268.113514 
L 298.958142 268.414072 
L 300.143013 268.257551 
L 301.327883 267.956812 
L 302.512754 268.154508 
L 303.697624 268.548716 
L 304.882495 268.726852 
L 306.067366 268.328814 
L 307.252236 268.602098 
L 308.437107 268.034692 
L 309.621977 268.595947 
L 310.806848 268.367615 
L 311.991719 267.902949 
L 314.36146 268.063608 
L 315.54633 267.75037 
L 316.731201 268.696019 
L 317.916072 268.603662 
L 319.100942 268.165852 
L 320.285813 267.869991 
L 321.470683 267.81384 
L 322.655554 268.692471 
L 323.840425 268.639674 
L 325.025295 267.858559 
L 326.210166 268.265373 
L 327.395036 268.026258 
L 328.579907 268.013419 
L 329.764778 268.653734 
L 330.949648 267.873206 
L 332.134519 267.855382 
L 333.31939 268.517035 
L 334.50426 268.69021 
L 335.689131 268.704309 
L 336.874001 268.188006 
L 338.058872 268.863673 
L 339.243743 268.205329 
L 340.428613 267.972695 
L 341.613484 268.247349 
L 342.798354 268.331782 
L 343.983225 268.148107 
L 345.168096 267.53182 
L 346.352966 267.530825 
L 347.537837 268.275296 
L 348.722707 268.154744 
L 349.907578 267.840495 
L 351.092449 268.468434 
L 353.46219 268.284438 
L 354.64706 268.357997 
L 355.831931 267.747862 
L 357.016802 268.268353 
L 358.201672 268.384379 
L 360.571413 268.400418 
L 361.756284 268.512906 
L 362.941155 267.912332 
L 364.126025 268.712892 
L 366.495766 267.810089 
L 367.680637 268.502038 
L 368.865508 268.415194 
L 370.050378 268.100717 
L 371.235249 268.513185 
L 372.420119 268.268482 
L 373.60499 269.115539 
L 374.789861 268.374403 
L 377.159602 268.463041 
L 378.344472 267.85253 
L 379.529343 268.741163 
L 380.714214 268.216505 
L 383.083955 268.452133 
L 384.268825 267.620206 
L 385.453696 267.825963 
L 386.638567 267.767937 
L 387.823437 268.018306 
L 389.008308 267.796978 
L 390.193179 268.277392 
L 391.378049 268.403643 
L 392.56292 267.872668 
L 393.74779 268.335232 
L 394.932661 268.284182 
L 396.117532 268.035968 
L 397.302402 268.319607 
L 398.487273 295.488 
L 398.487273 295.488 
" style="fill:none;stroke:#008000;stroke-dasharray:9.6,2.4,1.5,2.4;stroke-dashoffset:0;stroke-width:1.5;"/>
   </g>
   <g id="line2d_27">
    <path clip-path="url(#pdc14828366)" d="M 73.832727 267.602113 
L 75.017598 267.475692 
L 76.202468 266.88469 
L 77.387339 266.775347 
L 78.57221 266.310486 
L 79.75708 266.349112 
L 82.126821 265.863814 
L 84.496563 265.510424 
L 85.681433 265.572963 
L 86.866304 265.375486 
L 88.051175 265.553364 
L 89.236045 265.415369 
L 90.420916 265.160062 
L 91.605786 265.110384 
L 92.790657 264.935775 
L 95.160398 264.835542 
L 96.345269 264.662745 
L 97.530139 264.829632 
L 102.269622 264.839515 
L 103.454492 265.100764 
L 104.639363 264.577847 
L 105.824234 264.798096 
L 107.009104 264.691102 
L 108.193975 264.970236 
L 109.378845 265.076251 
L 110.563716 264.692762 
L 111.748587 264.849127 
L 112.933457 264.807825 
L 114.118328 264.450981 
L 116.488069 264.560238 
L 117.67294 264.320315 
L 118.85781 264.242521 
L 120.042681 264.466477 
L 123.597293 264.129162 
L 125.967034 264.188452 
L 127.151904 263.715032 
L 128.336775 263.910481 
L 129.521646 263.915157 
L 130.706516 264.113997 
L 131.891387 264.163462 
L 134.261128 263.149888 
L 135.445999 263.678201 
L 136.630869 263.364702 
L 137.81574 263.772257 
L 139.00061 263.105376 
L 140.185481 263.120281 
L 141.370352 262.865521 
L 142.555222 262.871659 
L 143.740093 263.049721 
L 144.924964 263.101948 
L 146.109834 262.925931 
L 147.294705 262.933061 
L 148.479575 263.150986 
L 149.664446 263.037818 
L 150.849317 262.666249 
L 152.034187 262.950053 
L 153.219058 263.081545 
L 154.403928 262.946903 
L 155.588799 263.014678 
L 156.77367 262.855284 
L 157.95854 262.95437 
L 159.143411 262.595217 
L 160.328281 262.788109 
L 161.513152 263.1745 
L 162.698023 263.32963 
L 165.067764 262.8551 
L 166.252634 262.662893 
L 167.437505 262.910798 
L 168.622376 262.901475 
L 169.807246 263.081617 
L 172.176987 262.781712 
L 173.361858 262.755073 
L 174.546729 262.104474 
L 175.731599 262.70712 
L 176.91647 262.67524 
L 178.10134 262.088044 
L 179.286211 262.285206 
L 180.471082 261.50422 
L 181.655952 261.971407 
L 184.025693 262.090421 
L 185.210564 261.95905 
L 186.395435 262.009859 
L 187.580305 262.191569 
L 188.765176 261.500631 
L 189.950046 261.915845 
L 191.134917 261.345268 
L 192.319788 261.706377 
L 195.874399 261.406434 
L 197.05927 261.51983 
L 198.244141 261.480734 
L 199.429011 261.1062 
L 200.613882 261.047048 
L 201.798752 261.665694 
L 202.983623 261.611058 
L 204.168494 261.836129 
L 205.353364 261.699279 
L 206.538235 261.807449 
L 207.723106 261.671802 
L 208.907976 261.754022 
L 210.092847 261.539645 
L 211.277717 261.191453 
L 212.462588 260.484359 
L 213.647459 261.017342 
L 214.832329 260.364866 
L 216.0172 260.934723 
L 218.386941 260.867536 
L 219.571812 260.533569 
L 220.756682 260.88871 
L 221.941553 260.790989 
L 223.126423 260.456623 
L 224.311294 260.782188 
L 225.496165 260.356907 
L 227.865906 260.547537 
L 229.050776 260.619385 
L 230.235647 261.431577 
L 231.420518 261.52471 
L 232.605388 262.1361 
L 233.790259 261.275428 
L 234.975129 261.850438 
L 236.16 261.558704 
L 238.529741 261.564392 
L 239.714612 261.781326 
L 242.084353 261.664331 
L 243.269224 261.733125 
L 244.454094 261.282635 
L 245.638965 261.738574 
L 246.823835 261.868894 
L 248.008706 261.810849 
L 249.193577 261.366863 
L 250.378447 261.76954 
L 251.563318 261.739823 
L 252.748188 261.301198 
L 253.933059 261.65359 
L 255.11793 261.598158 
L 256.3028 261.839621 
L 257.487671 261.317277 
L 258.672541 261.556988 
L 261.042283 261.680439 
L 262.227153 261.890034 
L 263.412024 261.537698 
L 265.781765 261.823418 
L 268.151506 261.394612 
L 269.336377 260.958625 
L 270.521248 261.250947 
L 272.890989 261.412187 
L 274.075859 261.210326 
L 276.445601 261.457961 
L 277.630471 261.681225 
L 278.815342 261.682509 
L 281.185083 261.342525 
L 282.369954 261.460426 
L 283.554824 261.736367 
L 284.739695 261.564106 
L 285.924565 261.674699 
L 287.109436 260.797707 
L 288.294307 261.477127 
L 289.479177 261.499723 
L 290.664048 261.748898 
L 291.848918 261.14589 
L 293.033789 261.10437 
L 294.21866 261.252261 
L 295.40353 260.836496 
L 296.588401 261.619189 
L 297.773271 261.04452 
L 298.958142 261.394519 
L 300.143013 261.456167 
L 301.327883 261.282541 
L 302.512754 261.450784 
L 303.697624 261.395408 
L 304.882495 261.813616 
L 306.067366 261.086732 
L 307.252236 261.15228 
L 308.437107 260.879382 
L 309.621977 261.470156 
L 310.806848 261.224124 
L 311.991719 262.081835 
L 313.176589 261.359593 
L 314.36146 261.623004 
L 315.54633 261.31279 
L 316.731201 261.858003 
L 317.916072 261.841933 
L 319.100942 261.642739 
L 320.285813 261.559108 
L 321.470683 261.154447 
L 322.655554 261.915763 
L 323.840425 261.575515 
L 325.025295 261.069069 
L 326.210166 261.502558 
L 327.395036 261.389288 
L 328.579907 261.469893 
L 329.764778 261.913841 
L 330.949648 261.433914 
L 332.134519 261.560164 
L 333.31939 261.833687 
L 334.50426 261.619852 
L 335.689131 261.63286 
L 336.874001 261.783224 
L 338.058872 262.096947 
L 339.243743 261.684582 
L 340.428613 261.144679 
L 341.613484 261.791647 
L 342.798354 261.815641 
L 343.983225 261.321652 
L 345.168096 261.043422 
L 346.352966 260.990205 
L 347.537837 261.644344 
L 348.722707 261.659968 
L 349.907578 261.316604 
L 351.092449 262.085587 
L 353.46219 261.957858 
L 354.64706 261.504807 
L 355.831931 260.746061 
L 357.016802 261.160746 
L 358.201672 261.180253 
L 359.386543 261.497182 
L 360.571413 261.042235 
L 361.756284 261.349898 
L 362.941155 260.486718 
L 364.126025 261.366764 
L 365.310896 260.827445 
L 366.495766 260.616067 
L 367.680637 260.845742 
L 368.865508 260.74284 
L 370.050378 260.338993 
L 371.235249 260.997234 
L 372.420119 260.604932 
L 373.60499 261.438482 
L 374.789861 260.919163 
L 375.974731 261.21732 
L 377.159602 260.315501 
L 378.344472 261.007332 
L 379.529343 260.904788 
L 380.714214 260.982189 
L 383.083955 260.922753 
L 384.268825 260.412906 
L 386.638567 260.509134 
L 387.823437 260.150338 
L 389.008308 260.737605 
L 390.193179 260.58247 
L 391.378049 260.280026 
L 392.56292 260.661915 
L 393.74779 260.917674 
L 394.932661 260.995831 
L 396.117532 260.81034 
L 397.302402 260.323402 
L 398.487273 219.35777 
L 398.487273 219.35777 
" style="fill:none;stroke:#008000;stroke-dasharray:9.6,2.4,1.5,2.4;stroke-dashoffset:0;stroke-width:1.5;"/>
   </g>
   <g id="line2d_28">
    <path clip-path="url(#pdc14828366)" d="M 73.832727 266.828861 
L 75.017598 266.828861 
L 76.202468 266.218964 
L 77.387339 266.218964 
L 79.75708 264.999168 
L 80.941951 264.999168 
L 82.126821 264.59257 
L 85.681433 264.59257 
L 86.866304 263.982672 
L 103.454492 263.982672 
L 104.639363 262.966176 
L 115.303198 262.966176 
L 116.488069 262.762877 
L 133.076257 262.762877 
L 134.261128 258.493594 
L 137.81574 258.493594 
L 139.00061 258.086996 
L 364.126025 258.086996 
L 365.310896 257.680397 
L 371.235249 257.680397 
L 372.420119 257.0705 
L 397.302402 257.0705 
L 398.487273 53.568 
L 398.487273 53.568 
" style="fill:none;stroke:#ff0000;stroke-linecap:square;stroke-width:1.5;"/>
   </g>
   <g id="patch_3">
    <path d="M 57.6 307.584 
L 57.6 41.472 
" style="fill:none;stroke:#000000;stroke-linecap:square;stroke-linejoin:miter;stroke-width:0.8;"/>
   </g>
   <g id="patch_4">
    <path d="M 414.72 307.584 
L 414.72 41.472 
" style="fill:none;stroke:#000000;stroke-linecap:square;stroke-linejoin:miter;stroke-width:0.8;"/>
   </g>
   <g id="patch_5">
    <path d="M 57.6 307.584 
L 414.72 307.584 
" style="fill:none;stroke:#000000;stroke-linecap:square;stroke-linejoin:miter;stroke-width:0.8;"/>
   </g>
   <g id="patch_6">
    <path d="M 57.6 41.472 
L 414.72 41.472 
" style="fill:none;stroke:#000000;stroke-linecap:square;stroke-linejoin:miter;stroke-width:0.8;"/>
   </g>
   <g id="text_15">
    <!-- Population's average and best fitness -->
    <g transform="translate(123.529687 35.472)scale(0.12 -0.12)">
     <defs>
      <path d="M 19.671875 64.796875 
L 19.671875 37.40625 
L 32.078125 37.40625 
Q 38.96875 37.40625 42.71875 40.96875 
Q 46.484375 44.53125 46.484375 51.125 
Q 46.484375 57.671875 42.71875 61.234375 
Q 38.96875 64.796875 32.078125 64.796875 
z
M 9.8125 72.90625 
L 32.078125 72.90625 
Q 44.34375 72.90625 50.609375 67.359375 
Q 56.890625 61.8125 56.890625 51.125 
Q 56.890625 40.328125 50.609375 34.8125 
Q 44.34375 29.296875 32.078125 29.296875 
L 19.671875 29.296875 
L 19.671875 0 
L 9.8125 0 
z
" id="DejaVuSans-80"/>
      <path d="M 18.109375 8.203125 
L 18.109375 -20.796875 
L 9.078125 -20.796875 
L 9.078125 54.6875 
L 18.109375 54.6875 
L 18.109375 46.390625 
Q 20.953125 51.265625 25.265625 53.625 
Q 29.59375 56 35.59375 56 
Q 45.5625 56 51.78125 48.09375 
Q 58.015625 40.1875 58.015625 27.296875 
Q 58.015625 14.40625 51.78125 6.484375 
Q 45.5625 -1.421875 35.59375 -1.421875 
Q 29.59375 -1.421875 25.265625 0.953125 
Q 20.953125 3.328125 18.109375 8.203125 
z
M 48.6875 27.296875 
Q 48.6875 37.203125 44.609375 42.84375 
Q 40.53125 48.484375 33.40625 48.484375 
Q 26.265625 48.484375 22.1875 42.84375 
Q 18.109375 37.203125 18.109375 27.296875 
Q 18.109375 17.390625 22.1875 11.75 
Q 26.265625 6.109375 33.40625 6.109375 
Q 40.53125 6.109375 44.609375 11.75 
Q 48.6875 17.390625 48.6875 27.296875 
z
" id="DejaVuSans-112"/>
      <path d="M 8.5 21.578125 
L 8.5 54.6875 
L 17.484375 54.6875 
L 17.484375 21.921875 
Q 17.484375 14.15625 20.5 10.265625 
Q 23.53125 6.390625 29.59375 6.390625 
Q 36.859375 6.390625 41.078125 11.03125 
Q 45.3125 15.671875 45.3125 23.6875 
L 45.3125 54.6875 
L 54.296875 54.6875 
L 54.296875 0 
L 45.3125 0 
L 45.3125 8.40625 
Q 42.046875 3.421875 37.71875 1 
Q 33.40625 -1.421875 27.6875 -1.421875 
Q 18.265625 -1.421875 13.375 4.4375 
Q 8.5 10.296875 8.5 21.578125 
z
M 31.109375 56 
z
" id="DejaVuSans-117"/>
      <path d="M 9.421875 75.984375 
L 18.40625 75.984375 
L 18.40625 0 
L 9.421875 0 
z
" id="DejaVuSans-108"/>
      <path d="M 17.921875 72.90625 
L 17.921875 45.796875 
L 9.625 45.796875 
L 9.625 72.90625 
z
" id="DejaVuSans-39"/>
      <path id="DejaVuSans-32"/>
      <path d="M 2.984375 54.6875 
L 12.5 54.6875 
L 29.59375 8.796875 
L 46.6875 54.6875 
L 56.203125 54.6875 
L 35.6875 0 
L 23.484375 0 
z
" id="DejaVuSans-118"/>
      <path d="M 45.40625 27.984375 
Q 45.40625 37.75 41.375 43.109375 
Q 37.359375 48.484375 30.078125 48.484375 
Q 22.859375 48.484375 18.828125 43.109375 
Q 14.796875 37.75 14.796875 27.984375 
Q 14.796875 18.265625 18.828125 12.890625 
Q 22.859375 7.515625 30.078125 7.515625 
Q 37.359375 7.515625 41.375 12.890625 
Q 45.40625 18.265625 45.40625 27.984375 
z
M 54.390625 6.78125 
Q 54.390625 -7.171875 48.1875 -13.984375 
Q 42 -20.796875 29.203125 -20.796875 
Q 24.46875 -20.796875 20.265625 -20.09375 
Q 16.0625 -19.390625 12.109375 -17.921875 
L 12.109375 -9.1875 
Q 16.0625 -11.328125 19.921875 -12.34375 
Q 23.78125 -13.375 27.78125 -13.375 
Q 36.625 -13.375 41.015625 -8.765625 
Q 45.40625 -4.15625 45.40625 5.171875 
L 45.40625 9.625 
Q 42.625 4.78125 38.28125 2.390625 
Q 33.9375 0 27.875 0 
Q 17.828125 0 11.671875 7.65625 
Q 5.515625 15.328125 5.515625 27.984375 
Q 5.515625 40.671875 11.671875 48.328125 
Q 17.828125 56 27.875 56 
Q 33.9375 56 38.28125 53.609375 
Q 42.625 51.21875 45.40625 46.390625 
L 45.40625 54.6875 
L 54.390625 54.6875 
z
" id="DejaVuSans-103"/>
      <path d="M 45.40625 46.390625 
L 45.40625 75.984375 
L 54.390625 75.984375 
L 54.390625 0 
L 45.40625 0 
L 45.40625 8.203125 
Q 42.578125 3.328125 38.25 0.953125 
Q 33.9375 -1.421875 27.875 -1.421875 
Q 17.96875 -1.421875 11.734375 6.484375 
Q 5.515625 14.40625 5.515625 27.296875 
Q 5.515625 40.1875 11.734375 48.09375 
Q 17.96875 56 27.875 56 
Q 33.9375 56 38.25 53.625 
Q 42.578125 51.265625 45.40625 46.390625 
z
M 14.796875 27.296875 
Q 14.796875 17.390625 18.875 11.75 
Q 22.953125 6.109375 30.078125 6.109375 
Q 37.203125 6.109375 41.296875 11.75 
Q 45.40625 17.390625 45.40625 27.296875 
Q 45.40625 37.203125 41.296875 42.84375 
Q 37.203125 48.484375 30.078125 48.484375 
Q 22.953125 48.484375 18.875 42.84375 
Q 14.796875 37.203125 14.796875 27.296875 
z
" id="DejaVuSans-100"/>
      <path d="M 48.6875 27.296875 
Q 48.6875 37.203125 44.609375 42.84375 
Q 40.53125 48.484375 33.40625 48.484375 
Q 26.265625 48.484375 22.1875 42.84375 
Q 18.109375 37.203125 18.109375 27.296875 
Q 18.109375 17.390625 22.1875 11.75 
Q 26.265625 6.109375 33.40625 6.109375 
Q 40.53125 6.109375 44.609375 11.75 
Q 48.6875 17.390625 48.6875 27.296875 
z
M 18.109375 46.390625 
Q 20.953125 51.265625 25.265625 53.625 
Q 29.59375 56 35.59375 56 
Q 45.5625 56 51.78125 48.09375 
Q 58.015625 40.1875 58.015625 27.296875 
Q 58.015625 14.40625 51.78125 6.484375 
Q 45.5625 -1.421875 35.59375 -1.421875 
Q 29.59375 -1.421875 25.265625 0.953125 
Q 20.953125 3.328125 18.109375 8.203125 
L 18.109375 0 
L 9.078125 0 
L 9.078125 75.984375 
L 18.109375 75.984375 
z
" id="DejaVuSans-98"/>
      <path d="M 37.109375 75.984375 
L 37.109375 68.5 
L 28.515625 68.5 
Q 23.6875 68.5 21.796875 66.546875 
Q 19.921875 64.59375 19.921875 59.515625 
L 19.921875 54.6875 
L 34.71875 54.6875 
L 34.71875 47.703125 
L 19.921875 47.703125 
L 19.921875 0 
L 10.890625 0 
L 10.890625 47.703125 
L 2.296875 47.703125 
L 2.296875 54.6875 
L 10.890625 54.6875 
L 10.890625 58.5 
Q 10.890625 67.625 15.140625 71.796875 
Q 19.390625 75.984375 28.609375 75.984375 
z
" id="DejaVuSans-102"/>
     </defs>
     <use xlink:href="#DejaVuSans-80"/>
     <use x="56.677734" xlink:href="#DejaVuSans-111"/>
     <use x="117.859375" xlink:href="#DejaVuSans-112"/>
     <use x="181.335938" xlink:href="#DejaVuSans-117"/>
     <use x="244.714844" xlink:href="#DejaVuSans-108"/>
     <use x="272.498047" xlink:href="#DejaVuSans-97"/>
     <use x="333.777344" xlink:href="#DejaVuSans-116"/>
     <use x="372.986328" xlink:href="#DejaVuSans-105"/>
     <use x="400.769531" xlink:href="#DejaVuSans-111"/>
     <use x="461.951172" xlink:href="#DejaVuSans-110"/>
     <use x="525.330078" xlink:href="#DejaVuSans-39"/>
     <use x="552.820312" xlink:href="#DejaVuSans-115"/>
     <use x="604.919922" xlink:href="#DejaVuSans-32"/>
     <use x="636.707031" xlink:href="#DejaVuSans-97"/>
     <use x="697.986328" xlink:href="#DejaVuSans-118"/>
     <use x="757.166016" xlink:href="#DejaVuSans-101"/>
     <use x="818.689453" xlink:href="#DejaVuSans-114"/>
     <use x="859.802734" xlink:href="#DejaVuSans-97"/>
     <use x="921.082031" xlink:href="#DejaVuSans-103"/>
     <use x="984.558594" xlink:href="#DejaVuSans-101"/>
     <use x="1046.082031" xlink:href="#DejaVuSans-32"/>
     <use x="1077.869141" xlink:href="#DejaVuSans-97"/>
     <use x="1139.148438" xlink:href="#DejaVuSans-110"/>
     <use x="1202.527344" xlink:href="#DejaVuSans-100"/>
     <use x="1266.003906" xlink:href="#DejaVuSans-32"/>
     <use x="1297.791016" xlink:href="#DejaVuSans-98"/>
     <use x="1361.267578" xlink:href="#DejaVuSans-101"/>
     <use x="1422.791016" xlink:href="#DejaVuSans-115"/>
     <use x="1474.890625" xlink:href="#DejaVuSans-116"/>
     <use x="1514.099609" xlink:href="#DejaVuSans-32"/>
     <use x="1545.886719" xlink:href="#DejaVuSans-102"/>
     <use x="1581.091797" xlink:href="#DejaVuSans-105"/>
     <use x="1608.875" xlink:href="#DejaVuSans-116"/>
     <use x="1648.083984" xlink:href="#DejaVuSans-110"/>
     <use x="1711.462891" xlink:href="#DejaVuSans-101"/>
     <use x="1772.986328" xlink:href="#DejaVuSans-115"/>
     <use x="1825.085938" xlink:href="#DejaVuSans-115"/>
    </g>
   </g>
   <g id="legend_1">
    <g id="patch_7">
     <path d="M 64.6 108.1845 
L 137.540625 108.1845 
Q 139.540625 108.1845 139.540625 106.1845 
L 139.540625 48.472 
Q 139.540625 46.472 137.540625 46.472 
L 64.6 46.472 
Q 62.6 46.472 62.6 48.472 
L 62.6 106.1845 
Q 62.6 108.1845 64.6 108.1845 
z
" style="fill:#ffffff;opacity:0.8;stroke:#cccccc;stroke-linejoin:miter;"/>
    </g>
    <g id="line2d_29">
     <path d="M 66.6 54.570438 
L 86.6 54.570438 
" style="fill:none;stroke:#0000ff;stroke-linecap:square;stroke-width:1.5;"/>
    </g>
    <g id="line2d_30"/>
    <g id="text_16">
     <!-- average -->
     <g transform="translate(94.6 58.070438)scale(0.1 -0.1)">
      <use xlink:href="#DejaVuSans-97"/>
      <use x="61.279297" xlink:href="#DejaVuSans-118"/>
      <use x="120.458984" xlink:href="#DejaVuSans-101"/>
      <use x="181.982422" xlink:href="#DejaVuSans-114"/>
      <use x="223.095703" xlink:href="#DejaVuSans-97"/>
      <use x="284.375" xlink:href="#DejaVuSans-103"/>
      <use x="347.851562" xlink:href="#DejaVuSans-101"/>
     </g>
    </g>
    <g id="line2d_31">
     <path d="M 66.6 69.248563 
L 86.6 69.248563 
" style="fill:none;stroke:#008000;stroke-dasharray:9.6,2.4,1.5,2.4;stroke-dashoffset:0;stroke-width:1.5;"/>
    </g>
    <g id="line2d_32"/>
    <g id="text_17">
     <!-- -1 sd -->
     <g transform="translate(94.6 72.748563)scale(0.1 -0.1)">
      <defs>
       <path d="M 4.890625 31.390625 
L 31.203125 31.390625 
L 31.203125 23.390625 
L 4.890625 23.390625 
z
" id="DejaVuSans-45"/>
      </defs>
      <use xlink:href="#DejaVuSans-45"/>
      <use x="36.083984" xlink:href="#DejaVuSans-49"/>
      <use x="99.707031" xlink:href="#DejaVuSans-32"/>
      <use x="131.494141" xlink:href="#DejaVuSans-115"/>
      <use x="183.59375" xlink:href="#DejaVuSans-100"/>
     </g>
    </g>
    <g id="line2d_33">
     <path d="M 66.6 83.926688 
L 86.6 83.926688 
" style="fill:none;stroke:#008000;stroke-dasharray:9.6,2.4,1.5,2.4;stroke-dashoffset:0;stroke-width:1.5;"/>
    </g>
    <g id="line2d_34"/>
    <g id="text_18">
     <!-- +1 sd -->
     <g transform="translate(94.6 87.426688)scale(0.1 -0.1)">
      <defs>
       <path d="M 46 62.703125 
L 46 35.5 
L 73.1875 35.5 
L 73.1875 27.203125 
L 46 27.203125 
L 46 0 
L 37.796875 0 
L 37.796875 27.203125 
L 10.59375 27.203125 
L 10.59375 35.5 
L 37.796875 35.5 
L 37.796875 62.703125 
z
" id="DejaVuSans-43"/>
      </defs>
      <use xlink:href="#DejaVuSans-43"/>
      <use x="83.789062" xlink:href="#DejaVuSans-49"/>
      <use x="147.412109" xlink:href="#DejaVuSans-32"/>
      <use x="179.199219" xlink:href="#DejaVuSans-115"/>
      <use x="231.298828" xlink:href="#DejaVuSans-100"/>
     </g>
    </g>
    <g id="line2d_35">
     <path d="M 66.6 98.604813 
L 86.6 98.604813 
" style="fill:none;stroke:#ff0000;stroke-linecap:square;stroke-width:1.5;"/>
    </g>
    <g id="line2d_36"/>
    <g id="text_19">
     <!-- best -->
     <g transform="translate(94.6 102.104813)scale(0.1 -0.1)">
      <use xlink:href="#DejaVuSans-98"/>
      <use x="63.476562" xlink:href="#DejaVuSans-101"/>
      <use x="125" xlink:href="#DejaVuSans-115"/>
      <use x="177.099609" xlink:href="#DejaVuSans-116"/>
     </g>
    </g>
   </g>
  </g>
 </g>
 <defs>
  <clipPath id="pdc14828366">
   <rect height="266.112" width="357.12" x="57.6" y="41.472"/>
  </clipPath>
 </defs>
</svg>
